<mxfile host="app.diagrams.net" agent="Mozilla/5.0 (Windows NT 10.0; Win64; x64) AppleWebKit/537.36 (KHTML, like Gecko) Chrome/131.0.0.0 Safari/537.36" version="24.9.1">
  <diagram name="Сторінка-1" id="WG7Ue9zAL-weg55wsf1G">
    <mxGraphModel dx="1680" dy="743" grid="1" gridSize="10" guides="1" tooltips="1" connect="1" arrows="1" fold="1" page="1" pageScale="1" pageWidth="827" pageHeight="1169" math="0" shadow="0">
      <root>
        <mxCell id="0" />
        <mxCell id="1" parent="0" />
        <mxCell id="dng1M8JYbMJ5DtCI-p1E-4" value="" style="edgeStyle=orthogonalEdgeStyle;rounded=0;orthogonalLoop=1;jettySize=auto;html=1;" edge="1" parent="1" source="dng1M8JYbMJ5DtCI-p1E-1" target="dng1M8JYbMJ5DtCI-p1E-3">
          <mxGeometry relative="1" as="geometry" />
        </mxCell>
        <mxCell id="dng1M8JYbMJ5DtCI-p1E-1" value="Start" style="ellipse;whiteSpace=wrap;html=1;" vertex="1" parent="1">
          <mxGeometry x="120" y="40" width="80" height="50" as="geometry" />
        </mxCell>
        <mxCell id="dng1M8JYbMJ5DtCI-p1E-2" value="End" style="ellipse;whiteSpace=wrap;html=1;" vertex="1" parent="1">
          <mxGeometry x="200" y="630" width="80" height="50" as="geometry" />
        </mxCell>
        <mxCell id="dng1M8JYbMJ5DtCI-p1E-7" value="" style="edgeStyle=orthogonalEdgeStyle;rounded=0;orthogonalLoop=1;jettySize=auto;html=1;" edge="1" parent="1" source="dng1M8JYbMJ5DtCI-p1E-3" target="dng1M8JYbMJ5DtCI-p1E-6">
          <mxGeometry relative="1" as="geometry" />
        </mxCell>
        <mxCell id="dng1M8JYbMJ5DtCI-p1E-3" value="Input s, x, y" style="shape=parallelogram;perimeter=parallelogramPerimeter;whiteSpace=wrap;html=1;fixedSize=1;" vertex="1" parent="1">
          <mxGeometry x="110" y="120" width="100" height="30" as="geometry" />
        </mxCell>
        <mxCell id="dng1M8JYbMJ5DtCI-p1E-12" style="edgeStyle=orthogonalEdgeStyle;rounded=0;orthogonalLoop=1;jettySize=auto;html=1;exitX=0.5;exitY=1;exitDx=0;exitDy=0;entryX=0.5;entryY=0;entryDx=0;entryDy=0;" edge="1" parent="1" source="dng1M8JYbMJ5DtCI-p1E-6" target="dng1M8JYbMJ5DtCI-p1E-8">
          <mxGeometry relative="1" as="geometry" />
        </mxCell>
        <mxCell id="dng1M8JYbMJ5DtCI-p1E-6" value="&lt;span style=&quot;color: rgb(0, 0, 0); font-family: Helvetica; font-size: 12px; font-style: normal; font-variant-ligatures: normal; font-variant-caps: normal; font-weight: 400; letter-spacing: normal; orphans: 2; text-align: center; text-indent: 0px; text-transform: none; widows: 2; word-spacing: 0px; -webkit-text-stroke-width: 0px; white-space: normal; background-color: rgb(251, 251, 251); text-decoration-thickness: initial; text-decoration-style: initial; text-decoration-color: initial; display: inline !important; float: none;&quot;&gt;Initialize up, right&lt;/span&gt;" style="rounded=1;whiteSpace=wrap;html=1;" vertex="1" parent="1">
          <mxGeometry x="105" y="180" width="110" height="30" as="geometry" />
        </mxCell>
        <mxCell id="dng1M8JYbMJ5DtCI-p1E-13" style="edgeStyle=orthogonalEdgeStyle;rounded=0;orthogonalLoop=1;jettySize=auto;html=1;exitX=0.5;exitY=1;exitDx=0;exitDy=0;entryX=0.5;entryY=0;entryDx=0;entryDy=0;" edge="1" parent="1" source="dng1M8JYbMJ5DtCI-p1E-8" target="dng1M8JYbMJ5DtCI-p1E-9">
          <mxGeometry relative="1" as="geometry" />
        </mxCell>
        <mxCell id="dng1M8JYbMJ5DtCI-p1E-8" value="for ( char c : s )" style="rhombus;whiteSpace=wrap;html=1;" vertex="1" parent="1">
          <mxGeometry x="105" y="240" width="115" height="60" as="geometry" />
        </mxCell>
        <mxCell id="dng1M8JYbMJ5DtCI-p1E-14" style="edgeStyle=orthogonalEdgeStyle;rounded=0;orthogonalLoop=1;jettySize=auto;html=1;exitX=0.5;exitY=1;exitDx=0;exitDy=0;entryX=0.5;entryY=0;entryDx=0;entryDy=0;" edge="1" parent="1" source="dng1M8JYbMJ5DtCI-p1E-9" target="dng1M8JYbMJ5DtCI-p1E-10">
          <mxGeometry relative="1" as="geometry" />
        </mxCell>
        <mxCell id="dng1M8JYbMJ5DtCI-p1E-17" style="edgeStyle=orthogonalEdgeStyle;rounded=0;orthogonalLoop=1;jettySize=auto;html=1;exitX=1;exitY=0.5;exitDx=0;exitDy=0;entryX=0;entryY=0.5;entryDx=0;entryDy=0;" edge="1" parent="1" source="dng1M8JYbMJ5DtCI-p1E-9" target="dng1M8JYbMJ5DtCI-p1E-15">
          <mxGeometry relative="1" as="geometry" />
        </mxCell>
        <mxCell id="dng1M8JYbMJ5DtCI-p1E-9" value="c == &#39;U&#39;" style="rhombus;whiteSpace=wrap;html=1;" vertex="1" parent="1">
          <mxGeometry x="120" y="320" width="80" height="50" as="geometry" />
        </mxCell>
        <mxCell id="dng1M8JYbMJ5DtCI-p1E-18" style="edgeStyle=orthogonalEdgeStyle;rounded=0;orthogonalLoop=1;jettySize=auto;html=1;exitX=1;exitY=0.5;exitDx=0;exitDy=0;" edge="1" parent="1" source="dng1M8JYbMJ5DtCI-p1E-10" target="dng1M8JYbMJ5DtCI-p1E-16">
          <mxGeometry relative="1" as="geometry" />
        </mxCell>
        <mxCell id="dng1M8JYbMJ5DtCI-p1E-22" value="" style="edgeStyle=orthogonalEdgeStyle;rounded=0;orthogonalLoop=1;jettySize=auto;html=1;" edge="1" parent="1" source="dng1M8JYbMJ5DtCI-p1E-10" target="dng1M8JYbMJ5DtCI-p1E-21">
          <mxGeometry relative="1" as="geometry" />
        </mxCell>
        <mxCell id="dng1M8JYbMJ5DtCI-p1E-10" value="c == &#39;R&#39;" style="rhombus;whiteSpace=wrap;html=1;" vertex="1" parent="1">
          <mxGeometry x="120" y="400" width="80" height="50" as="geometry" />
        </mxCell>
        <mxCell id="dng1M8JYbMJ5DtCI-p1E-19" style="edgeStyle=orthogonalEdgeStyle;rounded=0;orthogonalLoop=1;jettySize=auto;html=1;exitX=1;exitY=0.5;exitDx=0;exitDy=0;entryX=1;entryY=0.5;entryDx=0;entryDy=0;" edge="1" parent="1" source="dng1M8JYbMJ5DtCI-p1E-15" target="dng1M8JYbMJ5DtCI-p1E-8">
          <mxGeometry relative="1" as="geometry" />
        </mxCell>
        <mxCell id="dng1M8JYbMJ5DtCI-p1E-15" value="up++" style="rounded=0;whiteSpace=wrap;html=1;" vertex="1" parent="1">
          <mxGeometry x="240" y="330" width="70" height="30" as="geometry" />
        </mxCell>
        <mxCell id="dng1M8JYbMJ5DtCI-p1E-20" style="edgeStyle=orthogonalEdgeStyle;rounded=0;orthogonalLoop=1;jettySize=auto;html=1;exitX=1;exitY=0.5;exitDx=0;exitDy=0;" edge="1" parent="1" source="dng1M8JYbMJ5DtCI-p1E-16">
          <mxGeometry relative="1" as="geometry">
            <mxPoint x="220" y="270" as="targetPoint" />
            <Array as="points">
              <mxPoint x="330" y="425" />
              <mxPoint x="330" y="270" />
            </Array>
          </mxGeometry>
        </mxCell>
        <mxCell id="dng1M8JYbMJ5DtCI-p1E-16" value="right++" style="rounded=0;whiteSpace=wrap;html=1;" vertex="1" parent="1">
          <mxGeometry x="240" y="410" width="70" height="30" as="geometry" />
        </mxCell>
        <mxCell id="dng1M8JYbMJ5DtCI-p1E-25" style="edgeStyle=orthogonalEdgeStyle;rounded=0;orthogonalLoop=1;jettySize=auto;html=1;exitX=0;exitY=0.5;exitDx=0;exitDy=0;" edge="1" parent="1" source="dng1M8JYbMJ5DtCI-p1E-21" target="dng1M8JYbMJ5DtCI-p1E-23">
          <mxGeometry relative="1" as="geometry" />
        </mxCell>
        <mxCell id="dng1M8JYbMJ5DtCI-p1E-26" style="edgeStyle=orthogonalEdgeStyle;rounded=0;orthogonalLoop=1;jettySize=auto;html=1;exitX=1;exitY=0.5;exitDx=0;exitDy=0;" edge="1" parent="1" source="dng1M8JYbMJ5DtCI-p1E-21" target="dng1M8JYbMJ5DtCI-p1E-24">
          <mxGeometry relative="1" as="geometry" />
        </mxCell>
        <mxCell id="dng1M8JYbMJ5DtCI-p1E-21" value="if (up &amp;gt;= y &amp;amp;&amp;amp; right &amp;gt;= x)" style="rhombus;whiteSpace=wrap;html=1;" vertex="1" parent="1">
          <mxGeometry x="160" y="490" width="165" height="60" as="geometry" />
        </mxCell>
        <mxCell id="dng1M8JYbMJ5DtCI-p1E-27" style="edgeStyle=orthogonalEdgeStyle;rounded=0;orthogonalLoop=1;jettySize=auto;html=1;exitX=1;exitY=0.5;exitDx=0;exitDy=0;" edge="1" parent="1" source="dng1M8JYbMJ5DtCI-p1E-23" target="dng1M8JYbMJ5DtCI-p1E-2">
          <mxGeometry relative="1" as="geometry">
            <Array as="points">
              <mxPoint x="240" y="600" />
            </Array>
          </mxGeometry>
        </mxCell>
        <mxCell id="dng1M8JYbMJ5DtCI-p1E-23" value="Output : &quot;yes&quot;" style="shape=parallelogram;perimeter=parallelogramPerimeter;whiteSpace=wrap;html=1;fixedSize=1;" vertex="1" parent="1">
          <mxGeometry x="80" y="580" width="120" height="40" as="geometry" />
        </mxCell>
        <mxCell id="dng1M8JYbMJ5DtCI-p1E-28" style="edgeStyle=orthogonalEdgeStyle;rounded=0;orthogonalLoop=1;jettySize=auto;html=1;exitX=0;exitY=0.5;exitDx=0;exitDy=0;" edge="1" parent="1" source="dng1M8JYbMJ5DtCI-p1E-24">
          <mxGeometry relative="1" as="geometry">
            <mxPoint x="240" y="650" as="targetPoint" />
          </mxGeometry>
        </mxCell>
        <mxCell id="dng1M8JYbMJ5DtCI-p1E-24" value="Output : &quot;no&quot;" style="shape=parallelogram;perimeter=parallelogramPerimeter;whiteSpace=wrap;html=1;fixedSize=1;" vertex="1" parent="1">
          <mxGeometry x="294" y="580" width="120" height="40" as="geometry" />
        </mxCell>
      </root>
    </mxGraphModel>
  </diagram>
</mxfile>
